<svg xmlns="http://www.w3.org/2000/svg" width="297mm" height="210mm" viewBox="0 0 297 210">
  <rect width="297" height="210" fill="#fff"/>
  <rect x="8" y="8" width="18" height="18" fill="#000"/><rect x="14.00" y="14.00" width="3" height="3" fill="#fff"/><rect x="14.00" y="17.00" width="3" height="3" fill="#fff"/><rect x="20.00" y="17.00" width="3" height="3" fill="#fff"/><rect x="11.00" y="20.00" width="3" height="3" fill="#fff"/><rect x="14.00" y="20.00" width="3" height="3" fill="#fff"/><rect x="20.00" y="20.00" width="3" height="3" fill="#fff"/>
  <rect x="271" y="8" width="18" height="18" fill="#000"/><rect x="277.00" y="14.00" width="3" height="3" fill="#fff"/><rect x="277.00" y="17.00" width="3" height="3" fill="#fff"/><rect x="280.00" y="17.00" width="3" height="3" fill="#fff"/><rect x="283.00" y="17.00" width="3" height="3" fill="#fff"/><rect x="274.00" y="20.00" width="3" height="3" fill="#fff"/><rect x="280.00" y="20.00" width="3" height="3" fill="#fff"/>
  <rect x="8" y="184" width="18" height="18" fill="#000"/><rect x="14.00" y="190.00" width="3" height="3" fill="#fff"/><rect x="11.00" y="193.00" width="3" height="3" fill="#fff"/><rect x="17.00" y="193.00" width="3" height="3" fill="#fff"/><rect x="20.00" y="193.00" width="3" height="3" fill="#fff"/><rect x="14.00" y="196.00" width="3" height="3" fill="#fff"/><rect x="20.00" y="196.00" width="3" height="3" fill="#fff"/>
  <rect x="271" y="184" width="18" height="18" fill="#000"/><rect x="277.00" y="190.00" width="3" height="3" fill="#fff"/><rect x="274.00" y="193.00" width="3" height="3" fill="#fff"/><rect x="277.00" y="193.00" width="3" height="3" fill="#fff"/><rect x="283.00" y="193.00" width="3" height="3" fill="#fff"/><rect x="277.00" y="196.00" width="3" height="3" fill="#fff"/><rect x="280.00" y="196.00" width="3" height="3" fill="#fff"/>
  <path d="M113.77 45.19 L127.43 46.83 L155.27 51.97 L161.95 54.70 L176.25 62.00 L180.90 63.33 L184.22 63.25 L188.90 62.30 L215.55 53.94 L222.93 52.50 L235.24 51.40 L244.44 51.40 L250.42 52.63 L252.09 53.71 L253.26 55.44 L253.87 57.68 L253.74 59.78 L251.54 64.60 L247.25 70.88 L238.87 81.39 L228.09 93.34 L225.36 97.68 L224.51 100.60 L224.43 104.09 L227.14 118.28 L227.54 124.65 L226.61 128.05 L224.15 130.27 L221.00 131.12 L216.77 130.95 L213.20 129.93 L209.81 128.18 L207.78 126.95 L202.47 122.32 L190.10 109.44 L188.47 108.15 L185.68 107.75 L183.97 108.44 L178.66 112.82 L159.52 131.54 L150.26 139.94 L145.94 143.34 L134.58 151.02 L127.84 152.54 L104.28 155.86 L92.18 156.81 L84.29 156.90 L79.06 156.14 L75.91 154.87 L67.11 150.24 L61.62 146.75 L58.08 143.70 L55.00 140.15 L48.40 130.27 L46.47 126.21 L45.16 121.83 L42.81 107.70 L43.02 100.15 L45.18 87.51 L47.04 81.90 L50.26 76.28 L56.12 67.46 L58.27 64.88 L59.54 63.99 L68.62 60.56 L87.12 51.51 L95.46 48.10 L105.69 45.27 L108.36 44.85 L111.09 44.99 Z" fill="#fff" stroke="#8a8a8a" stroke-width="1.6" stroke-linejoin="round"/>
  <path d="M216.57 53.74 L218.81 54.65 L231.61 59.85 L234.41 67.45 L237.61 74.25 L232.81 86.25 L231.47 89.59" fill="none" stroke="#c2c2c2" stroke-width="0.55" stroke-dasharray="2.2 2" stroke-linecap="round" stroke-linejoin="round"/>
  <path d="M225.04 98.78 L223.21 103.05 L220.21 110.05 L212.61 112.85 L205.81 116.05 L193.81 111.25 L190.61 109.97" fill="none" stroke="#c2c2c2" stroke-width="0.55" stroke-dasharray="2.2 2" stroke-linecap="round" stroke-linejoin="round"/>
  <text x="148.5" y="197" text-anchor="middle" font-family="Segoe UI, sans-serif" font-size="7" font-weight="600" fill="#444">Дебилёнок</text>
</svg>
